<svg xmlns="http://www.w3.org/2000/svg" viewBox="0 0 800 800"><defs><style>.cls-1{fill:#f1482d;}.cls-2,.cls-3{fill:#232075;}.cls-2{opacity:0.22;}.cls-3{opacity:0.44;}.cls-4{fill:#fff;}</style></defs><title>haveno_logo_text</title><g id="Layer_4" data-name="Layer 4"><polygon class="cls-1" points="449.9 145.66 472.14 151.38 481.06 161.97 515.07 184.27 519.53 188.18 529.01 229.43 535.7 235.56 539.6 230.55 574.5 250.32 586.2 261.48 580.3 308.6 568.59 309.15 568.59 316.4 580.3 350.41 535.14 441.84 532.91 450.76 507.82 467.49 475.49 486.44 449.16 487.26 424.2 508.74 367.89 522.68 361.76 503.17 338.34 497.59 229.07 413.97 243.01 401.14 226.84 389.99 213.8 275.51 274.79 159.19 301.55 151.38 306.57 155.28 318.27 155.84 327.19 148.04 346.6 133.11 383.49 123.52 395.3 149.35 415.22 168.53 449.9 145.66"/><path class="cls-2" d="M480.56,191c17.93,5.76,26.62,22.11,42.52,53.11,17.19,33.53,25.79,50.29,19.84,64.91-7,17.27-28.68,23.24-26.46,35.41,1.12,6.09,7,7.1,8.51,14.75,1.92,9.88-5.76,19.27-8.51,22.62-20.87,25.51-50.15,11.84-76.53,36.39-9.44,8.78-4.9,9.79-23.63,32.45-16.78,20.31-25.17,30.47-35.9,32.46-20.84,3.86-43.19-17.95-53.86-36.39-13.83-23.89-2.94-33.25-16.06-58-15.21-28.71-34.52-25-45.36-52.12-7.78-19.46-4.45-37.9-1.89-52.13,2.37-13.14,10.08-55.91,38.74-69.83,27.91-13.54,41.94,16.66,81.26,5.91C407.58,213.82,414,199,449.38,192,462.6,189.31,470.69,187.8,480.56,191Z"/><path class="cls-3" d="M408.45,240c-24.2.1-76.71.32-103.7,26.27-2.08,2-22.88,22.49-12.2,36.44,10.32,13.48,39.5,7,52.46,21.18,10.39,11.35-4.41,19.86-1.22,43.22,2.46,18.05,15.68,45.08,41.48,49.14,19,3,37.11-7.71,42.7-11,27.76-16.42,30.77-42.49,31.72-52.54,3.48-36.81-23.49-50.34-8.54-73.72,9.51-14.88,26.3-18.58,23.18-26.27C469.06,239.78,417.07,240,408.45,240Z"/><path class="cls-3" d="M356.48,279.2c4.56-9,30.57-16.92,48.74-10.33,10.7,3.88,16.73,12.09,15.46,19.18-1.45,8.13-3.13,10.05-7.21,18.39-5.51,11.25,9.67,14,11.07,29.52,1.23,13.71-17.27,29.57-24.07,29.57-44.55-.06.52-34.27-33.29-67.88C360.87,291.38,353.32,285.43,356.48,279.2Z"/><path class="cls-4" d="M365.2,312.28h69.6V240.72H483V426.14H434.8v-76H365.2v76H317V240.72h48.2Z"/><circle class="cls-4" cx="400.19" cy="200.2" r="24.35"/><path class="cls-1" d="M153.87,617.45H188.1V582.26h23.7v91.19H188.1V636.08H153.87v37.37H130.16V582.26h23.71Z"/><path class="cls-1" d="M283.16,657.61H250.5l-6.28,15.84H219.06l35.07-91.19H280l34.35,91.19H289.09Zm-6.41-18.14-9.67-29h-.25l-9.79,29Z"/><path class="cls-1" d="M324.65,582.26l22,55.39,22.14-55.39h25.76l-38.95,91.19H337.23l-38.34-91.19Z"/><path class="cls-1" d="M452.37,602.33H424.19v15.24h26.73v20.08H424.19v15.73h28.18v20.07H400.48V582.26h51.89Z"/><path class="cls-1" d="M467,673.45V582.26h23.7L534.13,638h.25V582.26h23.7v91.19h-23.7L491,617.57h-.24v55.88Z"/><path class="cls-1" d="M594.73,585.1a54.8,54.8,0,0,1,49.35,0,48.06,48.06,0,0,1,18.63,16.75,43.44,43.44,0,0,1,7.13,24.31q0,22.14-14.21,36.23T619.4,676.48q-22,0-36.22-14.09T569,626.16a43.44,43.44,0,0,1,7.13-24.31A48.06,48.06,0,0,1,594.73,585.1Zm42.82,24.37a26.31,26.31,0,0,0-36.29,0q-7.62,7.26-7.62,16.81a26.94,26.94,0,0,0,7.5,19.42,25.29,25.29,0,0,0,36.53,0,26.94,26.94,0,0,0,7.5-19.42Q645.17,616.72,637.55,609.47Z"/></g></svg>